<svg width="1779" height="475" viewBox="0 0 1779 475" fill="none" xmlns="http://www.w3.org/2000/svg">
<path d="M94.2827 419H11.8963L137.429 55.3636H236.506L361.861 419H279.474L188.388 138.46H185.547L94.2827 419ZM89.1335 276.067H283.736V336.081H89.1335V276.067ZM492.01 423.439C471.295 423.439 452.533 418.112 435.724 407.459C419.034 396.687 405.777 380.884 395.952 360.051C386.245 339.099 381.392 313.413 381.392 282.991C381.392 251.741 386.423 225.759 396.484 205.044C406.546 184.211 419.922 168.645 436.612 158.347C453.421 147.93 471.828 142.722 491.832 142.722C507.102 142.722 519.827 145.326 530.007 150.534C540.305 155.624 548.591 162.016 554.865 169.71C561.257 177.286 566.11 184.743 569.425 192.082H571.733V55.3636H647.195V419H572.621V375.321H569.425C565.874 382.897 560.843 390.413 554.332 397.871C547.94 405.21 539.595 411.306 529.297 416.159C519.117 421.012 506.688 423.439 492.01 423.439ZM515.98 363.247C528.172 363.247 538.471 359.933 546.875 353.304C555.398 346.557 561.908 337.146 566.406 325.072C571.023 312.999 573.331 298.853 573.331 282.636C573.331 266.42 571.082 252.333 566.584 240.378C562.086 228.422 555.575 219.189 547.053 212.679C538.53 206.169 528.172 202.913 515.98 202.913C503.551 202.913 493.075 206.287 484.553 213.034C476.03 219.781 469.579 229.133 465.199 241.088C460.819 253.044 458.629 266.893 458.629 282.636C458.629 298.498 460.819 312.525 465.199 324.717C469.697 336.791 476.148 346.261 484.553 353.126C493.075 359.874 503.551 363.247 515.98 363.247Z" fill="#7D8180"/>
<mask id="path-2-outside-1_1544_2239" maskUnits="userSpaceOnUse" x="710" y="34" width="1055" height="390" fill="black">
<rect fill="white" x="710" y="34" width="1055" height="390"/>
<path d="M710.605 55.3636H805.42L905.562 299.682H909.824L1009.97 55.3636H1104.78V419H1030.21V182.317H1027.19L933.084 417.224H882.303L788.197 181.429H785.179V419H710.605V55.3636ZM1166.7 419V146.273H1242.34V419H1166.7ZM1204.7 111.116C1193.46 111.116 1183.81 107.388 1175.76 99.9304C1167.83 92.3546 1163.86 83.2992 1163.86 72.7642C1163.86 62.3475 1167.83 53.4105 1175.76 45.9531C1183.81 38.3774 1193.46 34.5895 1204.7 34.5895C1215.95 34.5895 1225.53 38.3774 1233.47 45.9531C1241.51 53.4105 1245.54 62.3475 1245.54 72.7642C1245.54 83.2992 1241.51 92.3546 1233.47 99.9304C1225.53 107.388 1215.95 111.116 1204.7 111.116ZM1378.57 261.33V419H1302.93V146.273H1375.02V194.391H1378.22C1384.26 178.529 1394.38 165.982 1408.58 156.749C1422.79 147.397 1440.01 142.722 1460.25 142.722C1479.19 142.722 1495.7 146.865 1509.79 155.151C1523.87 163.437 1534.82 175.274 1542.64 190.662C1550.45 205.932 1554.36 224.161 1554.36 245.349V419H1478.72V258.844C1478.83 242.153 1474.57 229.133 1465.93 219.781C1457.29 210.312 1445.39 205.577 1430.24 205.577C1420.06 205.577 1411.07 207.767 1403.25 212.146C1395.56 216.526 1389.52 222.918 1385.14 231.322C1380.88 239.608 1378.69 249.611 1378.57 261.33ZM1759.03 146.273V203.091H1594.79V146.273H1759.03ZM1632.08 80.9318H1707.72V335.193C1707.72 342.177 1708.79 347.622 1710.92 351.528C1713.05 355.316 1716.01 357.98 1719.79 359.518C1723.7 361.057 1728.2 361.827 1733.29 361.827C1736.84 361.827 1740.39 361.531 1743.94 360.939C1747.49 360.229 1750.22 359.696 1752.11 359.341L1764.01 415.626C1760.22 416.81 1754.89 418.171 1748.03 419.71C1741.16 421.367 1732.81 422.374 1722.99 422.729C1704.76 423.439 1688.78 421.012 1675.05 415.449C1661.44 409.885 1650.84 401.244 1643.27 389.526C1635.69 377.807 1631.96 363.01 1632.08 345.136V80.9318Z"/>
</mask>
<path d="M710.605 55.3636H805.42L905.562 299.682H909.824L1009.97 55.3636H1104.78V419H1030.21V182.317H1027.19L933.084 417.224H882.303L788.197 181.429H785.179V419H710.605V55.3636ZM1166.7 419V146.273H1242.34V419H1166.7ZM1204.7 111.116C1193.46 111.116 1183.81 107.388 1175.76 99.9304C1167.83 92.3546 1163.86 83.2992 1163.86 72.7642C1163.86 62.3475 1167.83 53.4105 1175.76 45.9531C1183.81 38.3774 1193.46 34.5895 1204.7 34.5895C1215.95 34.5895 1225.53 38.3774 1233.47 45.9531C1241.51 53.4105 1245.54 62.3475 1245.54 72.7642C1245.54 83.2992 1241.51 92.3546 1233.47 99.9304C1225.53 107.388 1215.95 111.116 1204.7 111.116ZM1378.57 261.33V419H1302.93V146.273H1375.02V194.391H1378.22C1384.26 178.529 1394.38 165.982 1408.58 156.749C1422.79 147.397 1440.01 142.722 1460.25 142.722C1479.19 142.722 1495.7 146.865 1509.79 155.151C1523.87 163.437 1534.82 175.274 1542.64 190.662C1550.45 205.932 1554.36 224.161 1554.36 245.349V419H1478.72V258.844C1478.83 242.153 1474.57 229.133 1465.93 219.781C1457.29 210.312 1445.39 205.577 1430.24 205.577C1420.06 205.577 1411.07 207.767 1403.25 212.146C1395.56 216.526 1389.52 222.918 1385.14 231.322C1380.88 239.608 1378.69 249.611 1378.57 261.33ZM1759.03 146.273V203.091H1594.79V146.273H1759.03ZM1632.08 80.9318H1707.72V335.193C1707.72 342.177 1708.79 347.622 1710.92 351.528C1713.05 355.316 1716.01 357.98 1719.79 359.518C1723.7 361.057 1728.2 361.827 1733.29 361.827C1736.84 361.827 1740.39 361.531 1743.94 360.939C1747.49 360.229 1750.22 359.696 1752.11 359.341L1764.01 415.626C1760.22 416.81 1754.89 418.171 1748.03 419.71C1741.16 421.367 1732.81 422.374 1722.99 422.729C1704.76 423.439 1688.78 421.012 1675.05 415.449C1661.44 409.885 1650.84 401.244 1643.27 389.526C1635.69 377.807 1631.96 363.01 1632.08 345.136V80.9318Z" fill="white"/>
<path d="M710.605 55.3636V54.8636H710.105V55.3636H710.605ZM805.42 55.3636L805.883 55.174L805.756 54.8636H805.42V55.3636ZM905.562 299.682L905.1 299.871L905.227 300.182H905.562V299.682ZM909.824 299.682V300.182H910.159L910.287 299.871L909.824 299.682ZM1009.97 55.3636V54.8636H1009.63L1009.5 55.174L1009.97 55.3636ZM1104.78 55.3636H1105.28V54.8636H1104.78V55.3636ZM1104.78 419V419.5H1105.28V419H1104.78ZM1030.21 419H1029.71V419.5H1030.21V419ZM1030.21 182.317H1030.71V181.817H1030.21V182.317ZM1027.19 182.317V181.817H1026.85L1026.72 182.131L1027.19 182.317ZM933.084 417.224V417.724H933.422L933.548 417.41L933.084 417.224ZM882.303 417.224L881.838 417.41L881.964 417.724H882.303V417.224ZM788.197 181.429L788.662 181.244L788.536 180.929H788.197V181.429ZM785.179 181.429V180.929H784.679V181.429H785.179ZM785.179 419V419.5H785.679V419H785.179ZM710.605 419H710.105V419.5H710.605V419ZM710.605 55.8636H805.42V54.8636H710.605V55.8636ZM804.958 55.5533L905.1 299.871L906.025 299.492L805.883 55.174L804.958 55.5533ZM905.562 300.182H909.824V299.182H905.562V300.182ZM910.287 299.871L1010.43 55.5533L1009.5 55.174L909.361 299.492L910.287 299.871ZM1009.97 55.8636H1104.78V54.8636H1009.97V55.8636ZM1104.28 55.3636V419H1105.28V55.3636H1104.28ZM1104.78 418.5H1030.21V419.5H1104.78V418.5ZM1030.71 419V182.317H1029.71V419H1030.71ZM1030.21 181.817H1027.19V182.817H1030.21V181.817ZM1026.72 182.131L932.62 417.038L933.548 417.41L1027.65 182.503L1026.72 182.131ZM933.084 416.724H882.303V417.724H933.084V416.724ZM882.767 417.039L788.662 181.244L787.733 181.614L881.838 417.41L882.767 417.039ZM788.197 180.929H785.179V181.929H788.197V180.929ZM784.679 181.429V419H785.679V181.429H784.679ZM785.179 418.5H710.605V419.5H785.179V418.5ZM711.105 419V55.3636H710.105V419H711.105ZM1166.7 419H1166.2V419.5H1166.7V419ZM1166.7 146.273V145.773H1166.2V146.273H1166.7ZM1242.34 146.273H1242.84V145.773H1242.34V146.273ZM1242.34 419V419.5H1242.84V419H1242.34ZM1175.76 99.9304L1175.41 100.292L1175.42 100.297L1175.76 99.9304ZM1175.76 45.9531L1176.1 46.3174L1176.1 46.3172L1175.76 45.9531ZM1233.47 45.9531L1233.12 46.3147L1233.13 46.3199L1233.47 45.9531ZM1233.47 99.9304L1233.81 100.295L1233.81 100.294L1233.47 99.9304ZM1167.2 419V146.273H1166.2V419H1167.2ZM1166.7 146.773H1242.34V145.773H1166.7V146.773ZM1241.84 146.273V419H1242.84V146.273H1241.84ZM1242.34 418.5H1166.7V419.5H1242.34V418.5ZM1204.7 110.616C1193.58 110.616 1184.05 106.933 1176.1 99.5636L1175.42 100.297C1183.56 107.843 1193.33 111.616 1204.7 111.616V110.616ZM1176.1 99.5688C1168.27 92.0831 1164.36 83.1565 1164.36 72.7642H1163.36C1163.36 83.442 1167.39 92.6262 1175.41 100.292L1176.1 99.5688ZM1164.36 72.7642C1164.36 62.4923 1168.27 53.6851 1176.1 46.3174L1175.42 45.5889C1167.39 53.1359 1163.36 62.2027 1163.36 72.7642H1164.36ZM1176.1 46.3172C1184.06 38.8304 1193.58 35.0895 1204.7 35.0895V34.0895C1193.33 34.0895 1183.56 37.9243 1175.42 45.589L1176.1 46.3172ZM1204.7 35.0895C1215.82 35.0895 1225.28 38.8302 1233.12 46.3147L1233.81 45.5916C1225.78 37.9245 1216.07 34.0895 1204.7 34.0895V35.0895ZM1233.13 46.3199C1241.08 53.6883 1245.04 62.4949 1245.04 72.7642H1246.04C1246.04 62.2001 1241.95 53.1327 1233.81 45.5863L1233.13 46.3199ZM1245.04 72.7642C1245.04 83.1539 1241.08 92.0798 1233.12 99.5663L1233.81 100.294C1241.95 92.6295 1246.04 83.4445 1246.04 72.7642H1245.04ZM1233.12 99.5661C1225.29 106.933 1215.82 110.616 1204.7 110.616V111.616C1216.07 111.616 1225.78 107.842 1233.81 100.295L1233.12 99.5661ZM1378.57 261.33L1378.07 261.324V261.33H1378.57ZM1378.57 419V419.5H1379.07V419H1378.57ZM1302.93 419H1302.43V419.5H1302.93V419ZM1302.93 146.273V145.773H1302.43V146.273H1302.93ZM1375.02 146.273H1375.52V145.773H1375.02V146.273ZM1375.02 194.391H1374.52V194.891H1375.02V194.391ZM1378.22 194.391V194.891H1378.56L1378.69 194.568L1378.22 194.391ZM1408.58 156.749L1408.85 157.168L1408.86 157.166L1408.58 156.749ZM1509.79 155.151L1510.04 154.72L1509.79 155.151ZM1542.64 190.662L1542.19 190.888L1542.19 190.89L1542.64 190.662ZM1554.36 419V419.5H1554.86V419H1554.36ZM1478.72 419H1478.22V419.5H1478.72V419ZM1478.72 258.844L1478.22 258.84V258.844H1478.72ZM1465.93 219.781L1465.56 220.118L1465.56 220.121L1465.93 219.781ZM1403.25 212.146L1403.01 211.71L1403.01 211.712L1403.25 212.146ZM1385.14 231.322L1384.7 231.091L1384.7 231.094L1385.14 231.322ZM1378.07 261.33V419H1379.07V261.33H1378.07ZM1378.57 418.5H1302.93V419.5H1378.57V418.5ZM1303.43 419V146.273H1302.43V419H1303.43ZM1302.93 146.773H1375.02V145.773H1302.93V146.773ZM1374.52 146.273V194.391H1375.52V146.273H1374.52ZM1375.02 194.891H1378.22V193.891H1375.02V194.891ZM1378.69 194.568C1384.69 178.806 1394.74 166.343 1408.85 157.168L1408.31 156.329C1394.01 165.62 1383.83 178.252 1377.75 194.213L1378.69 194.568ZM1408.86 157.166C1422.96 147.878 1440.09 143.222 1460.25 143.222V142.222C1439.93 142.222 1422.61 146.916 1408.31 156.331L1408.86 157.166ZM1460.25 143.222C1479.11 143.222 1495.54 147.348 1509.53 155.582L1510.04 154.72C1495.87 146.382 1479.26 142.222 1460.25 142.222V143.222ZM1509.53 155.582C1523.53 163.816 1534.42 175.58 1542.19 190.888L1543.08 190.436C1535.23 174.967 1524.22 163.057 1510.04 154.72L1509.53 155.582ZM1542.19 190.89C1549.96 206.074 1553.86 224.222 1553.86 245.349H1554.86C1554.86 224.1 1550.94 205.789 1543.08 190.434L1542.19 190.89ZM1553.86 245.349V419H1554.86V245.349H1553.86ZM1554.36 418.5H1478.72V419.5H1554.36V418.5ZM1479.22 419V258.844H1478.22V419H1479.22ZM1479.22 258.847C1479.33 242.071 1475.05 228.913 1466.3 219.442L1465.56 220.121C1474.1 229.353 1478.33 242.236 1478.22 258.84L1479.22 258.847ZM1466.3 219.444C1457.55 209.852 1445.51 205.077 1430.24 205.077V206.077C1445.28 206.077 1457.03 210.771 1465.56 220.118L1466.3 219.444ZM1430.24 205.077C1419.99 205.077 1410.91 207.283 1403.01 211.71L1403.5 212.582C1411.23 208.25 1420.14 206.077 1430.24 206.077V205.077ZM1403.01 211.712C1395.22 216.142 1389.12 222.608 1384.7 231.091L1385.59 231.554C1389.93 223.228 1395.9 216.91 1403.5 212.581L1403.01 211.712ZM1384.7 231.094C1380.39 239.464 1378.19 249.547 1378.07 261.324L1379.07 261.335C1379.19 249.674 1381.37 239.752 1385.59 231.551L1384.7 231.094ZM1759.03 146.273H1759.53V145.773H1759.03V146.273ZM1759.03 203.091V203.591H1759.53V203.091H1759.03ZM1594.79 203.091H1594.29V203.591H1594.79V203.091ZM1594.79 146.273V145.773H1594.29V146.273H1594.79ZM1632.08 80.9318V80.4318H1631.58V80.9318H1632.08ZM1707.72 80.9318H1708.22V80.4318H1707.72V80.9318ZM1710.92 351.528L1710.48 351.768L1710.48 351.774L1710.92 351.528ZM1719.79 359.518L1719.61 359.982L1719.61 359.984L1719.79 359.518ZM1743.94 360.939L1744.02 361.432L1744.03 361.431L1744.04 361.429L1743.94 360.939ZM1752.11 359.341L1752.6 359.238L1752.5 358.759L1752.02 358.849L1752.11 359.341ZM1764.01 415.626L1764.15 416.104L1764.59 415.968L1764.49 415.523L1764.01 415.626ZM1748.03 419.71L1747.92 419.222L1747.91 419.224L1748.03 419.71ZM1722.99 422.729L1722.97 422.229L1722.97 422.229L1722.99 422.729ZM1675.05 415.449L1674.86 415.912L1674.86 415.912L1675.05 415.449ZM1643.27 389.526L1643.69 389.254L1643.27 389.526ZM1632.08 345.136L1632.58 345.14V345.136H1632.08ZM1758.53 146.273V203.091H1759.53V146.273H1758.53ZM1759.03 202.591H1594.79V203.591H1759.03V202.591ZM1595.29 203.091V146.273H1594.29V203.091H1595.29ZM1594.79 146.773H1759.03V145.773H1594.79V146.773ZM1632.08 81.4318H1707.72V80.4318H1632.08V81.4318ZM1707.22 80.9318V335.193H1708.22V80.9318H1707.22ZM1707.22 335.193C1707.22 342.218 1708.29 347.758 1710.48 351.768L1711.35 351.289C1709.28 347.486 1708.22 342.137 1708.22 335.193H1707.22ZM1710.48 351.774C1712.66 355.653 1715.71 358.397 1719.61 359.982L1719.98 359.055C1716.31 357.562 1713.43 354.979 1711.35 351.283L1710.48 351.774ZM1719.61 359.984C1723.59 361.55 1728.15 362.327 1733.29 362.327V361.327C1728.25 361.327 1723.81 360.565 1719.98 359.053L1719.61 359.984ZM1733.29 362.327C1736.87 362.327 1740.45 362.028 1744.02 361.432L1743.86 360.446C1740.33 361.033 1736.81 361.327 1733.29 361.327V362.327ZM1744.04 361.429C1747.59 360.719 1750.31 360.187 1752.2 359.832L1752.02 358.849C1750.12 359.205 1747.4 359.738 1743.84 360.449L1744.04 361.429ZM1751.62 359.444L1763.52 415.73L1764.49 415.523L1752.6 359.238L1751.62 359.444ZM1763.86 415.149C1760.09 416.327 1754.78 417.685 1747.92 419.222L1748.13 420.198C1755.01 418.658 1760.35 417.293 1764.15 416.104L1763.86 415.149ZM1747.91 419.224C1741.08 420.871 1732.77 421.875 1722.97 422.229L1723.01 423.228C1732.85 422.872 1741.23 421.864 1748.14 420.196L1747.91 419.224ZM1722.97 422.229C1704.8 422.937 1688.89 420.517 1675.24 414.985L1674.86 415.912C1688.67 421.508 1704.73 423.941 1723.01 423.228L1722.97 422.229ZM1675.24 414.986C1661.72 409.459 1651.2 400.882 1643.69 389.254L1642.85 389.797C1650.48 401.606 1661.16 410.312 1674.86 415.912L1675.24 414.986ZM1643.69 389.254C1636.18 377.637 1632.46 362.943 1632.58 345.14L1631.58 345.133C1631.46 363.077 1635.21 377.976 1642.85 389.797L1643.69 389.254ZM1632.58 345.136V80.9318H1631.58V345.136H1632.58Z" fill="white" mask="url(#path-2-outside-1_1544_2239)"/>
</svg>
